<svg width="104" height="104" viewBox="0 0 104 104" fill="none" xmlns="http://www.w3.org/2000/svg">
<g filter="url(#filter0_f_1095_1944)">
<circle cx="52" cy="52" r="45.5" stroke="white"/>
</g>
<circle cx="52" cy="52" r="45.5" fill="black" fill-opacity="0.71" stroke="white"/>
<g filter="url(#filter1_df_1095_1944)">
<path d="M52 28C38.2151 28 27.0001 38.1996 27.0001 50.7368C27.0001 55.12 28.3726 59.3651 30.9734 63.0349C30.4809 68.5398 29.1609 72.6265 27.2442 74.5625C26.9909 74.8185 26.9276 75.2101 27.0876 75.5335C27.2301 75.8223 27.5209 76 27.8334 76C27.8717 76 27.9109 75.9975 27.9501 75.9916C28.2876 75.9436 36.1276 74.8025 41.7975 71.4964C45.0184 72.8093 48.4484 73.4737 52 73.4737C65.785 73.4737 77 63.2741 77 50.7368C77 38.1996 65.785 28 52 28Z" fill="white"/>
</g>
<path d="M52 28C38.2151 28 27.0001 38.1996 27.0001 50.7368C27.0001 55.12 28.3726 59.3651 30.9734 63.0349C30.4809 68.5398 29.1609 72.6265 27.2442 74.5625C26.9909 74.8185 26.9276 75.2101 27.0876 75.5335C27.2301 75.8223 27.5209 76 27.8334 76C27.8717 76 27.9109 75.9975 27.9501 75.9916C28.2876 75.9436 36.1276 74.8025 41.7975 71.4964C45.0184 72.8093 48.4484 73.4737 52 73.4737C65.785 73.4737 77 63.2741 77 50.7368C77 38.1996 65.785 28 52 28Z" fill="white"/>
<defs>
<filter id="filter0_f_1095_1944" x="0" y="0" width="104" height="104" filterUnits="userSpaceOnUse" color-interpolation-filters="sRGB">
<feFlood flood-opacity="0" result="BackgroundImageFix"/>
<feBlend mode="normal" in="SourceGraphic" in2="BackgroundImageFix" result="shape"/>
<feGaussianBlur stdDeviation="3" result="effect1_foregroundBlur_1095_1944"/>
</filter>
<filter id="filter1_df_1095_1944" x="21" y="22" width="62" height="62" filterUnits="userSpaceOnUse" color-interpolation-filters="sRGB">
<feFlood flood-opacity="0" result="BackgroundImageFix"/>
<feColorMatrix in="SourceAlpha" type="matrix" values="0 0 0 0 0 0 0 0 0 0 0 0 0 0 0 0 0 0 127 0" result="hardAlpha"/>
<feOffset dy="4"/>
<feGaussianBlur stdDeviation="2"/>
<feComposite in2="hardAlpha" operator="out"/>
<feColorMatrix type="matrix" values="0 0 0 0 0 0 0 0 0 0 0 0 0 0 0 0 0 0 0.25 0"/>
<feBlend mode="normal" in2="BackgroundImageFix" result="effect1_dropShadow_1095_1944"/>
<feBlend mode="normal" in="SourceGraphic" in2="effect1_dropShadow_1095_1944" result="shape"/>
<feGaussianBlur stdDeviation="3" result="effect2_foregroundBlur_1095_1944"/>
</filter>
</defs>
</svg>
