<svg width="27" height="27" viewBox="0 0 27 27" fill="none" xmlns="http://www.w3.org/2000/svg">
<path d="M22.5 0C24.9853 0 27 2.01472 27 4.5V22.5C27 24.9853 24.9853 27 22.5 27H4.5C2.01472 27 0 24.9853 0 22.5V4.5C0 2.01472 2.01472 0 4.5 0H22.5ZM20.2045 7.4545L10.5 17.159L6.7955 13.4545C6.35616 13.0152 5.64384 13.0152 5.2045 13.4545C4.76516 13.8938 4.76516 14.6062 5.2045 15.0455L9.70451 19.5455C10.1438 19.9848 10.8562 19.9848 11.2955 19.5455L21.7955 9.04549C22.2348 8.60615 22.2348 7.89384 21.7955 7.4545C21.3562 7.01516 20.6438 7.01516 20.2045 7.4545Z" fill="url(#paint0_linear_965_5835)"/>
<defs>
<linearGradient id="paint0_linear_965_5835" x1="1.5" y1="1.5" x2="23" y2="33" gradientUnits="userSpaceOnUse">
<stop stop-color="#79EAE3"/>
<stop offset="1" stop-color="#45B6AF" stop-opacity="0.87"/>
</linearGradient>
</defs>
</svg>
