<svg width="29" height="29" viewBox="0 0 29 29" fill="none" xmlns="http://www.w3.org/2000/svg">
<path d="M14.5 0C11.6322 0 8.82875 0.85041 6.44424 2.44369C4.05973 4.03697 2.20122 6.30156 1.10375 8.95109C0.00628265 11.6006 -0.280866 14.5161 0.27862 17.3288C0.838105 20.1415 2.2191 22.7252 4.24696 24.753C6.27482 26.7809 8.85847 28.1619 11.6712 28.7214C14.4839 29.2809 17.3994 28.9937 20.0489 27.8962C22.6984 26.7988 24.963 24.9403 26.5563 22.5558C28.1496 20.1713 29 17.3678 29 14.5C29 10.6544 27.4723 6.96623 24.753 4.24695C22.0338 1.52767 18.3456 0 14.5 0ZM12.6996 7.25C12.6996 6.76929 12.8905 6.30828 13.2305 5.96837C13.5704 5.62846 14.0314 5.4375 14.5121 5.4375C14.9928 5.4375 15.4538 5.62846 15.7937 5.96837C16.1336 6.30828 16.3246 6.76929 16.3246 7.25V15.5754C16.3246 15.8134 16.2777 16.0491 16.1866 16.269C16.0955 16.4889 15.962 16.6887 15.7937 16.857C15.6254 17.0254 15.4256 17.1589 15.2057 17.2499C14.9858 17.341 14.7501 17.3879 14.5121 17.3879C14.2741 17.3879 14.0384 17.341 13.8185 17.2499C13.5986 17.1589 13.3988 17.0254 13.2305 16.857C13.0621 16.6887 12.9286 16.4889 12.8376 16.269C12.7465 16.0491 12.6996 15.8134 12.6996 15.5754V7.25ZM14.5 23.5625C14.0889 23.5625 13.6871 23.4406 13.3453 23.2122C13.0036 22.9839 12.7372 22.6593 12.5799 22.2795C12.4226 21.8997 12.3814 21.4819 12.4616 21.0787C12.5418 20.6755 12.7397 20.3052 13.0304 20.0146C13.3211 19.7239 13.6914 19.526 14.0945 19.4458C14.4977 19.3656 14.9156 19.4067 15.2953 19.564C15.6751 19.7213 15.9997 19.9877 16.2281 20.3295C16.4564 20.6713 16.5783 21.0731 16.5783 21.4842C16.5783 22.0354 16.3594 22.564 15.9696 22.9538C15.5798 23.3435 15.0512 23.5625 14.5 23.5625Z" fill="url(#paint0_linear_492_6222)"/>
<defs>
<linearGradient id="paint0_linear_492_6222" x1="14.5" y1="0" x2="14.5" y2="29" gradientUnits="userSpaceOnUse">
<stop stop-color="#E72A2A"/>
<stop offset="1" stop-color="#A41919"/>
</linearGradient>
</defs>
</svg>
