<svg width="28" height="28" viewBox="0 0 28 28" fill="none" xmlns="http://www.w3.org/2000/svg">
<g clip-path="url(#clip0_1095_1931)">
<path d="M28 20.9998C28 21.8249 27.6722 22.6162 27.0888 23.1997C26.5053 23.7831 25.714 24.1109 24.8889 24.1109H3.11111C2.28599 24.1109 1.49467 23.7831 0.911223 23.1997C0.327777 22.6162 0 21.8249 0 20.9998V17.8887H28V20.9998Z" fill="#CE2028"/>
<path d="M0 10.1113H28V17.8891H0V10.1113Z" fill="#22408C"/>
<path d="M24.8889 3.88867H3.11111C2.28599 3.88867 1.49467 4.21645 0.911223 4.7999C0.327777 5.38334 0 6.17466 0 6.99978L0 10.1109H28V6.99978C28 6.17466 27.6722 5.38334 27.0888 4.7999C26.5053 4.21645 25.714 3.88867 24.8889 3.88867Z" fill="#EEEEEE"/>
</g>
<defs>
<clipPath id="clip0_1095_1931">
<rect width="28" height="28" fill="white"/>
</clipPath>
</defs>
</svg>
