<svg width="284" height="295" viewBox="0 0 284 295" fill="none" xmlns="http://www.w3.org/2000/svg">
<g opacity="0.15" filter="url(#filter0_f_1103_646)">
<path d="M271 125.251H250.938C250.161 159.621 238.083 189.318 213.682 213.614C189.28 237.909 159.474 249.958 124.87 250.734V281.279H123.5C123.513 280.863 123.538 280.446 123.538 280.028C123.538 265.699 123.538 251.37 123.538 237.041V235.676C120.838 235.542 118.26 235.468 115.691 235.272C113.155 235.079 110.628 234.763 107.928 234.483C108.184 232.708 108.425 231.047 108.675 229.317C111.213 229.574 113.656 229.872 116.106 230.055C118.524 230.234 120.951 230.297 123.457 230.415V167.101C112.084 166.684 102.198 162.66 94.1167 154.619C86.035 146.577 81.9377 136.737 81.5381 125.282H61.3105V123.937H81.529C81.9365 112.509 85.995 102.671 94.0756 94.6243C102.156 86.5772 112.031 82.5082 123.53 82.1147V61.963L124.878 61.8789C124.886 68.6556 124.878 75.338 124.884 82.1125C136.385 82.5071 146.26 86.5659 154.345 94.614C162.406 102.636 166.467 112.437 166.894 123.741C167.733 123.968 231.492 124.031 233.089 123.798C233.003 114.504 231.803 105.355 229.303 96.2016L219.211 98.8946C214.091 80.8786 204.826 65.4339 191.046 52.7481C177.267 40.0623 161.126 32.0118 142.695 28.359C142.777 27.8598 142.834 27.4561 142.91 27.0558C142.981 26.6884 143.072 26.3245 143.185 25.8185C150.114 27.1229 156.771 29.1471 163.362 31.8458L167.442 22.251C177.025 26.2664 185.995 31.6004 194.091 38.0971L188.354 45.2014C194.846 50.4816 200.668 56.3758 205.73 62.9979C210.774 69.5938 214.891 76.7413 218.301 84.4426L226.719 80.8706C229.72 87.7031 231.893 94.7334 233.406 101.966C234.924 109.19 235.695 116.549 235.708 123.93H270.201C270.467 123.93 270.732 123.906 271 123.893V125.251ZM249.53 125.323H235.723C235.643 134.42 234.542 143.327 232.235 152.203L228.449 151.234C229.476 146.9 230.357 142.646 230.888 138.325C231.419 134.003 231.793 129.695 231.726 125.337H166.9C166.475 136.773 162.388 146.604 154.288 154.644C146.188 162.684 136.307 166.688 124.967 167.101C124.739 169.46 124.83 229.468 125.081 230.419L132.346 230.085C132.241 228.672 132.148 227.429 132.057 226.185C131.964 224.909 131.873 223.632 131.774 222.251C145.963 221.161 159.247 217.219 171.628 210.424C184.032 203.609 194.471 194.523 203.057 183.192L206.211 185.531C200.191 193.548 193.027 200.645 184.945 206.597C185.894 207.876 186.772 209.06 187.651 210.245L190.401 213.966C170.823 228.129 149.007 235.351 124.952 235.634V249.316C144.45 249.165 162.876 244.864 180.208 236.146C203.417 224.466 221.351 207.289 234.011 184.614C244.251 166.237 249.287 146.463 249.53 125.323ZM124.943 165.664C148.653 165.494 165.973 144.859 165.357 125.322H124.943V165.664ZM165.535 123.865C165.33 115.997 163.185 108.867 158.967 102.385C154.147 94.9745 147.614 89.625 139.369 86.3361C134.785 84.505 129.898 83.5409 124.959 83.4931V123.865H165.535ZM82.948 125.314C83.1763 149.118 104.033 166.182 123.464 165.557V125.314H82.948ZM82.9994 123.851H123.431C123.687 121.926 123.587 84.2687 123.333 83.4965C99.8774 83.9059 82.8076 103.704 82.9994 123.851Z" fill="white"/>
<path d="M13 119.63C13.1421 118.623 13.3478 117.62 13.4149 116.607C13.6957 112.546 14.1947 108.503 14.9097 104.496C14.9677 104.167 15.0723 103.846 15.1723 103.454L20.2286 104.412C17.6254 118.661 17.7971 132.814 20.8481 147.03L28.4939 145.384C32.7931 164.388 41.7313 180.718 55.4621 194.31C69.1667 207.877 85.52 216.59 104.482 220.652C104.134 222.372 103.8 224.025 103.449 225.773C94.4207 223.936 85.9269 220.932 77.6753 216.791L74.1286 223.786C73.2135 223.314 72.3701 222.905 71.5493 222.454C52.9942 212.247 38.3483 198.002 27.7845 179.561C21.218 168.132 16.7767 155.596 14.6778 142.567C14.081 138.893 13.8344 135.162 13.4138 131.46C13.3001 130.484 13.1398 129.517 13 128.542V119.63ZM31.1368 174.792C35.4674 182.845 40.8237 190.297 47.0706 196.958L48.9394 195.181C45.8986 191.813 43.0533 188.414 40.4547 184.806C37.8686 181.22 35.5838 177.437 33.3808 173.559L31.1368 174.792Z" fill="#72AAFF"/>
<path d="M122.212 13C122.23 14.2346 122.246 15.4703 122.268 16.7085C122.293 16.8431 122.33 16.9752 122.377 17.1032C128.611 17.0889 134.88 17.4334 141.094 18.4395C147.309 19.4455 153.428 20.9145 159.474 23.1133C159.048 24.4292 158.657 25.6255 158.214 26.9809C152.416 24.9926 146.553 23.4794 140.567 22.5391C134.6 21.6024 128.6 21.143 122.441 21.3428V26.6375L108.656 27.9044C107.885 23.581 107.272 19.1106 106.538 14.5348C107.071 14.4295 107.544 14.2956 108.025 14.2477C111.27 13.8888 114.517 13.5599 117.762 13.2093C118.095 13.1573 118.426 13.0874 118.752 13H122.212Z" fill="#6184FF"/>
<path d="M27.0267 133.334L21.9113 133.777C20.9722 124.161 21.4807 114.727 23.2419 105.21L25.8495 105.544C26.7732 100.721 28.0578 95.9736 29.6926 91.3404L19.6816 87.8608C30.0121 59.9644 48.3701 39.2304 74.9194 25.335C76.9681 29.2585 78.8919 33.1003 80.841 36.8944L68.9921 43.9011L65.3001 38.666L59.4186 43.0131L56.1434 39.0066C52.1304 42.1841 48.3601 45.6519 44.8636 49.3816C46.7646 51.1543 48.6152 52.8793 50.5344 54.6668L56.6954 48.7196C57.6058 49.7212 58.436 50.6319 59.304 51.5859C35.6222 73.811 24.8532 100.992 27.0267 133.334Z" fill="#6184FF"/>
<path d="M97.748 16.5977C98.8244 20.9476 99.8526 25.0984 100.886 29.2723L87.7663 33.5578L82.8975 21.471C87.7549 19.437 92.6375 17.9092 97.748 16.5977Z" fill="#72AAFF"/>
<path d="M97.5029 227.314L102.94 228.497C102.609 230.01 102.296 231.423 101.963 232.968L96.2588 231.756L97.5029 227.314Z" fill="#72AAFF"/>
<path d="M110.761 221.662L115.274 222.328C115.146 223.994 115.021 225.59 114.888 227.315C113.3 227.272 111.779 226.97 110.135 226.687C110.345 225.003 110.545 223.386 110.761 221.662Z" fill="#72AAFF"/>
<path d="M206.757 59.534L209.742 57.1992L212.41 60.5897C211.458 61.4472 210.41 62.078 209.37 62.8526L206.757 59.534Z" fill="#72AAFF"/>
<path d="M214.615 63.8799L217.036 68.2336L213.723 70.5612L211.383 66.3587C212.469 65.5272 213.503 64.732 214.615 63.8799Z" fill="#72AAFF"/>
<path d="M201.103 52.5537L203.837 50.0039L206.756 53.2179C205.798 54.04 204.902 54.8124 203.92 55.6573L201.103 52.5537Z" fill="#72AAFF"/>
<path d="M225.774 169.603L223.273 175.406L212.411 169.216L214.624 164.1L225.774 169.603Z" fill="#72AAFF"/>
<path d="M216.008 159.238L217.826 153.821L230.398 157.949L228.357 164.1L216.008 159.238Z" fill="#72AAFF"/>
<path d="M206.757 178.793C207.7 177.278 208.571 175.886 209.512 174.379L220.119 180.68L217.014 185.686L206.757 178.793Z" fill="#72AAFF"/>
</g>
<g opacity="0.15" filter="url(#filter1_df_1103_646)">
<path d="M271 125.251H250.938C250.161 159.621 238.083 189.318 213.682 213.614C189.28 237.909 159.474 249.958 124.87 250.734V281.279H123.5C123.513 280.863 123.538 280.446 123.538 280.028C123.538 265.699 123.538 251.37 123.538 237.041V235.676C120.838 235.542 118.26 235.468 115.691 235.272C113.155 235.079 110.628 234.763 107.928 234.483C108.184 232.708 108.425 231.047 108.675 229.317C111.213 229.574 113.656 229.872 116.106 230.055C118.524 230.234 120.951 230.297 123.457 230.415V167.101C112.084 166.684 102.198 162.66 94.1167 154.619C86.035 146.577 81.9377 136.737 81.5381 125.282H61.3105V123.937H81.529C81.9365 112.509 85.995 102.671 94.0756 94.6243C102.156 86.5772 112.031 82.5082 123.53 82.1147V61.963L124.878 61.8789C124.886 68.6556 124.878 75.338 124.884 82.1125C136.385 82.5071 146.26 86.5659 154.345 94.614C162.406 102.636 166.467 112.437 166.894 123.741C167.733 123.968 231.492 124.031 233.089 123.798C233.003 114.504 231.803 105.355 229.303 96.2016L219.211 98.8946C214.091 80.8786 204.826 65.4339 191.046 52.7481C177.267 40.0623 161.126 32.0118 142.695 28.359C142.777 27.8598 142.834 27.4561 142.91 27.0558C142.981 26.6884 143.072 26.3245 143.185 25.8185C150.114 27.1229 156.771 29.1471 163.362 31.8458L167.442 22.251C177.025 26.2664 185.995 31.6004 194.091 38.0971L188.354 45.2014C194.846 50.4816 200.668 56.3758 205.73 62.9979C210.774 69.5938 214.891 76.7413 218.301 84.4426L226.719 80.8706C229.72 87.7031 231.893 94.7334 233.406 101.966C234.924 109.19 235.695 116.549 235.708 123.93H270.201C270.467 123.93 270.732 123.906 271 123.893V125.251ZM249.53 125.323H235.723C235.643 134.42 234.542 143.327 232.235 152.203L228.449 151.234C229.476 146.9 230.357 142.646 230.888 138.325C231.419 134.003 231.793 129.695 231.726 125.337H166.9C166.475 136.773 162.388 146.604 154.288 154.644C146.188 162.684 136.307 166.688 124.967 167.101C124.739 169.46 124.83 229.468 125.081 230.419L132.346 230.085C132.241 228.672 132.148 227.429 132.057 226.185C131.964 224.909 131.873 223.632 131.774 222.251C145.963 221.161 159.247 217.219 171.628 210.424C184.032 203.609 194.471 194.523 203.057 183.192L206.211 185.531C200.191 193.548 193.027 200.645 184.945 206.597C185.894 207.876 186.772 209.06 187.651 210.245L190.401 213.966C170.823 228.129 149.007 235.351 124.952 235.634V249.316C144.45 249.165 162.876 244.864 180.208 236.146C203.417 224.466 221.351 207.289 234.011 184.614C244.251 166.237 249.287 146.463 249.53 125.323ZM124.943 165.664C148.653 165.494 165.973 144.859 165.357 125.322H124.943V165.664ZM165.535 123.865C165.33 115.997 163.185 108.867 158.967 102.385C154.147 94.9745 147.614 89.625 139.369 86.3361C134.785 84.505 129.898 83.5409 124.959 83.4931V123.865H165.535ZM82.948 125.314C83.1763 149.118 104.033 166.182 123.464 165.557V125.314H82.948ZM82.9994 123.851H123.431C123.687 121.926 123.587 84.2687 123.333 83.4965C99.8774 83.9059 82.8076 103.704 82.9994 123.851Z" fill="white"/>
<path d="M270.5 124.422C270.4 124.426 270.299 124.43 270.201 124.43H235.708H235.209L235.208 123.93C235.195 116.584 234.427 109.259 232.916 102.069L232.916 102.069C231.443 95.0261 229.343 88.1799 226.459 81.5242L218.496 84.9029L218.043 85.0952L217.843 84.6451C214.447 76.9756 210.35 69.8629 205.333 63.3016L205.73 62.9979L205.333 63.3016C200.296 56.7131 194.502 50.8467 188.039 45.5893L187.652 45.2749L187.965 44.8873L193.386 38.1741C185.559 31.9511 176.921 26.8147 167.707 22.9054L163.822 32.0415L163.629 32.4954L163.172 32.3085C156.76 29.6831 150.289 27.7 143.566 26.4C143.564 26.4064 143.563 26.4127 143.561 26.419C143.498 26.6919 143.446 26.9175 143.401 27.1503C143.401 27.1503 143.401 27.1503 143.401 27.1504L142.91 27.0558C142.859 27.3221 142.817 27.59 142.77 27.8866C142.747 28.0357 142.722 28.192 142.695 28.359L270.5 124.422ZM270.5 124.422V124.751H250.938H250.449L250.438 125.24C249.664 159.488 237.634 189.059 213.329 213.259C189.023 237.46 159.342 249.461 124.859 250.234L124.37 250.245V250.734V280.779H124.019C124.029 280.532 124.038 280.277 124.038 280.028V279.944V279.86V279.776V279.692V279.608V279.524V279.44V279.356V279.272V279.188V279.104V279.02V278.936V278.852V278.769V278.685V278.601V278.517V278.433V278.349V278.265V278.181V278.097V278.013V277.929V277.845V277.761V277.677V277.593V277.509V277.425V277.341V277.257V277.173V277.089V277.005V276.921V276.837V276.753V276.67V276.586V276.502V276.418V276.334V276.25V276.166V276.082V275.998V275.914V275.83V275.746V275.662V275.578V275.494V275.41V275.326V275.242V275.158V275.074V274.99V274.906V274.822V274.738V274.655V274.571V274.487V274.403V274.319V274.235V274.151V274.067V273.983V273.899V273.815V273.731V273.647V273.563V273.479V273.395V273.311V273.227V273.143V273.059V272.975V272.891V272.807V272.723V272.639V272.556V272.472V272.388V272.304V272.22V272.136V272.052V271.968V271.884V271.8V271.716V271.632V271.548V271.464V271.38V271.296V271.212V271.128V271.044V270.96V270.876V270.792V270.708V270.624V270.54V270.457V270.373V270.289V270.205V270.121V270.037V269.953V269.869V269.785V269.701V269.617V269.533V269.449V269.365V269.281V269.197V269.113V269.029V268.945V268.861V268.777V268.693V268.609V268.525V268.441V268.358V268.274V268.19V268.106V268.022V267.938V267.854V267.77V267.686V267.602V267.518V267.434V267.35V267.266V267.182V267.098V267.014V266.93V266.846V266.762V266.678V266.594V266.51V266.426V266.343V266.259V266.175V266.091V266.007V265.923V265.839V265.755V265.671V265.587V265.503V265.419V265.335V265.251V265.167V265.083V264.999V264.915V264.831V264.747V264.663V264.579V264.495V264.411V264.327V264.244V264.16V264.076V263.992V263.908V263.824V263.74V263.656V263.572V263.488V263.404V263.32V263.236V263.152V263.068V262.984V262.9V262.816V262.732V262.648V262.564V262.48V262.396V262.312V262.229V262.145V262.061V261.977V261.893V261.809V261.725V261.641V261.557V261.473V261.389V261.305V261.221V261.137V261.053V260.969V260.885V260.801V260.717V260.633V260.549V260.465V260.381V260.297V260.213V260.13V260.046V259.962V259.878V259.794V259.71V259.626V259.542V259.458V259.374V259.29V259.206V259.122V259.038V258.954V258.87V258.786V258.702V258.618V258.534V258.45V258.366V258.282V258.198V258.114V258.031V257.947V257.863V257.779V257.695V257.611V257.527V257.443V257.359V257.275V257.191V257.107V257.023V256.939V256.855V256.771V256.687V256.603V256.519V256.435V256.351V256.267V256.183V256.099V256.016V255.932V255.848V255.764V255.68V255.596V255.512V255.428V255.344V255.26V255.176V255.092V255.008V254.924V254.84V254.756V254.672V254.588V254.504V254.42V254.336V254.252V254.168V254.084V254V253.917V253.833V253.749V253.665V253.581V253.497V253.413V253.329V253.245V253.161V253.077V252.993V252.909V252.825V252.741V252.657V252.573V252.489V252.405V252.321V252.237V252.153V252.069V251.985V251.901V251.818V251.734V251.65V251.566V251.482V251.398V251.314V251.23V251.146V251.062V250.978V250.894V250.81V250.726V250.642V250.558V250.474V250.39V250.306V250.222V250.138V250.054V249.97V249.886V249.802V249.719V249.635V249.551V249.467V249.383V249.299V249.215V249.131V249.047V248.963V248.879V248.795V248.711V248.627V248.543V248.459V248.375V248.291V248.207V248.123V248.039V247.955V247.871V247.787V247.704V247.62V247.536V247.452V247.368V247.284V247.2V247.116V247.032V246.948V246.864V246.78V246.696V246.612V246.528V246.444V246.36V246.276V246.192V246.108V246.024V245.94V245.856V245.772V245.688V245.605V245.521V245.437V245.353V245.269V245.185V245.101V245.017V244.933V244.849V244.765V244.681V244.597V244.513V244.429V244.345V244.261V244.177V244.093V244.009V243.925V243.841V243.757V243.673V243.589V243.506V243.422V243.338V243.254V243.17V243.086V243.002V242.918V242.834V242.75V242.666V242.582V242.498V242.414V242.33V242.246V242.162V242.078V241.994V241.91V241.826V241.742V241.658V241.574V241.491V241.407V241.323V241.239V241.155V241.071V240.987V240.903V240.819V240.735V240.651V240.567V240.483V240.399V240.315V240.231V240.147V240.063V239.979V239.895V239.811V239.727V239.643V239.559V239.475V239.392V239.308V239.224V239.14V239.056V238.972V238.888V238.804V238.72V238.636V238.552V238.468V238.384V238.3V238.216V238.132V238.048V237.964V237.88V237.796V237.712V237.628V237.544V237.46V237.376V237.293V237.209V237.125V237.041V235.676V235.2L123.563 235.177C122.717 235.135 121.887 235.099 121.067 235.063C119.255 234.984 117.492 234.908 115.729 234.774C113.985 234.641 112.251 234.45 110.452 234.252C109.81 234.182 109.16 234.11 108.497 234.04C108.631 233.114 108.761 232.216 108.891 231.317C108.961 230.834 109.031 230.351 109.101 229.863C109.712 229.926 110.318 229.991 110.923 230.056C112.653 230.242 114.361 230.426 116.068 230.553C117.748 230.678 119.438 230.747 121.145 230.816C121.904 230.847 122.666 230.878 123.433 230.915L123.957 230.939V230.415V167.101V166.619L123.475 166.601C112.22 166.188 102.456 162.211 94.4693 154.264C86.4822 146.317 82.4332 136.599 82.0378 125.264L82.021 124.782H81.5381H61.8105V124.437H81.529H82.0114L82.0286 123.955C82.432 112.646 86.4429 102.931 94.4284 94.9786C102.414 87.0256 112.167 83.0039 123.547 82.6144L124.03 82.5979V82.1147V62.4328L124.379 62.411C124.382 65.8809 124.382 69.3256 124.382 72.7723C124.381 75.8777 124.381 78.9846 124.384 82.1129L124.384 82.5956L124.867 82.6122C136.249 83.0027 146.002 87.0144 153.992 94.9684L153.992 94.9684C161.959 102.896 165.972 112.575 166.394 123.76L166.408 124.127L166.763 124.223C166.829 124.241 166.906 124.247 166.939 124.25C166.99 124.254 167.055 124.258 167.13 124.261C167.28 124.268 167.487 124.275 167.745 124.281C168.262 124.294 168.993 124.307 169.907 124.318C171.736 124.341 174.303 124.361 177.363 124.378C183.485 124.413 191.584 124.434 199.707 124.442C207.83 124.449 215.976 124.442 222.192 124.419C225.3 124.407 227.927 124.392 229.826 124.371C230.776 124.361 231.545 124.35 232.103 124.338C232.639 124.326 233.023 124.313 233.162 124.292L233.593 124.229L233.589 123.793C233.502 114.459 232.297 105.267 229.785 96.0699L229.654 95.5903L229.174 95.7185L219.556 98.2849C214.385 80.3864 205.114 65.0199 191.385 52.3802C177.654 39.7389 161.587 31.6769 143.264 27.9633L270.5 124.422ZM233.406 101.966C231.893 94.7334 229.72 87.7031 226.719 80.8706L218.301 84.4426L233.406 101.966ZM233.406 101.966C234.924 109.19 235.695 116.549 235.708 123.93L233.406 101.966ZM132.555 226.149C132.474 225.027 132.394 223.904 132.308 222.71C146.381 221.562 159.57 217.613 171.869 210.862L171.869 210.862C184.192 204.092 194.585 195.091 203.156 183.887L205.508 185.632C199.581 193.446 192.556 200.371 184.649 206.194L184.245 206.492L184.544 206.895C185.492 208.174 186.37 209.358 187.25 210.543L189.698 213.856C170.309 227.764 148.729 234.854 124.946 235.134L124.452 235.14V235.634V249.316V249.82L124.956 249.816C144.528 249.664 163.03 245.346 180.432 236.592L180.208 236.146L180.432 236.592C203.731 224.868 221.739 207.62 234.447 184.858L234.447 184.858C244.73 166.404 249.786 146.548 250.03 125.328L250.036 124.823H249.53H235.723H235.228L235.223 125.318C235.145 134.213 234.086 142.921 231.876 151.595L229.048 150.872C230.029 146.694 230.87 142.574 231.385 138.386C231.917 134.054 232.293 129.72 232.226 125.33L232.219 124.837H231.726H166.9H166.418L166.4 125.319C165.98 136.635 161.941 146.343 153.936 154.289C145.931 162.235 136.172 166.193 124.949 166.601L124.512 166.617L124.469 167.053C124.438 167.375 124.415 168.602 124.396 170.455C124.377 172.325 124.363 174.868 124.353 177.854C124.334 183.827 124.332 191.58 124.344 199.289C124.357 206.997 124.385 214.662 124.425 220.459C124.446 223.358 124.469 225.791 124.495 227.529C124.508 228.398 124.522 229.095 124.536 229.591C124.544 229.839 124.551 230.039 124.559 230.187C124.563 230.26 124.567 230.324 124.572 230.375C124.575 230.413 124.581 230.484 124.598 230.546L124.701 230.937L125.104 230.918L132.368 230.585L132.882 230.561L132.844 230.048L132.818 229.692C132.723 228.424 132.639 227.287 132.555 226.149ZM132.555 226.149L132.057 226.185M132.555 226.149C132.555 226.148 132.555 226.148 132.555 226.148L132.057 226.185M132.057 226.185C132.137 227.28 132.218 228.375 132.308 229.587L171.628 210.424C159.247 217.219 145.963 221.161 131.774 222.251C131.805 222.687 131.835 223.112 131.866 223.53C131.931 224.437 131.993 225.311 132.057 226.185ZM124.443 165.664V166.167L124.947 166.164C148.945 165.992 166.481 145.116 165.857 125.306L165.842 124.822H165.357H124.943H124.443V125.322V165.664ZM165.535 124.365H166.048L166.035 123.852C165.827 115.896 163.656 108.675 159.387 102.112C154.509 94.615 147.895 89.1987 139.554 85.8717C134.912 84.0177 129.965 83.0415 124.964 82.9931L124.459 82.9882V83.4931V123.865V124.365H124.959H165.535ZM82.948 124.814H82.4432L82.448 125.318C82.6792 149.416 103.781 166.691 123.48 166.056L123.964 166.041V165.557V125.314V124.814H123.464H82.948ZM82.4994 123.856L82.5041 124.351H82.9994H123.431H123.868L123.926 123.917C123.963 123.64 123.989 122.803 124.01 121.605C124.032 120.386 124.048 118.752 124.059 116.845C124.082 113.03 124.086 108.117 124.073 103.24C124.061 98.3635 124.033 93.5223 123.992 89.8513C123.971 88.0161 123.947 86.4718 123.921 85.3612C123.908 84.8064 123.893 84.3571 123.879 84.0329C123.871 83.8713 123.863 83.7368 123.855 83.6343C123.851 83.5834 123.846 83.5359 123.841 83.4948C123.837 83.465 123.829 83.4019 123.809 83.3405L123.694 82.9901L123.325 82.9966C99.5848 83.4109 82.3051 103.443 82.4994 123.856Z" stroke="white" stroke-opacity="0.53"/>
<path d="M13 119.63C13.1421 118.623 13.3478 117.62 13.4149 116.607C13.6957 112.546 14.1947 108.503 14.9097 104.496C14.9677 104.167 15.0723 103.846 15.1723 103.454L20.2286 104.412C17.6254 118.661 17.7971 132.814 20.8481 147.03L28.4939 145.384C32.7931 164.388 41.7313 180.718 55.4621 194.31C69.1667 207.877 85.52 216.59 104.482 220.652C104.134 222.372 103.8 224.025 103.449 225.773C94.4207 223.936 85.9269 220.932 77.6753 216.791L74.1286 223.786C73.2135 223.314 72.3701 222.905 71.5493 222.454C52.9942 212.247 38.3483 198.002 27.7845 179.561C21.218 168.132 16.7767 155.596 14.6778 142.567C14.081 138.893 13.8344 135.162 13.4138 131.46C13.3001 130.484 13.1398 129.517 13 128.542V119.63ZM31.1368 174.792C35.4674 182.845 40.8237 190.297 47.0706 196.958L48.9394 195.181C45.8986 191.813 43.0533 188.414 40.4547 184.806C37.8686 181.22 35.5838 177.437 33.3808 173.559L31.1368 174.792Z" fill="#9C7CA7"/>
<path d="M20.9533 147.519L28.1164 145.977C32.4777 164.865 41.4265 181.119 55.1103 194.665C68.768 208.185 85.0462 216.911 103.894 221.036C103.614 222.423 103.34 223.776 103.058 225.182C94.2578 223.345 85.9641 220.391 77.8995 216.344L77.4545 216.121L77.2293 216.565L73.9096 223.112C73.7564 223.034 73.6058 222.958 73.4574 222.883C72.8783 222.59 72.332 222.313 71.7903 222.016C53.3142 211.852 38.7357 197.673 28.2184 179.313L28.2181 179.312C21.6817 167.935 17.2607 155.457 15.1715 142.487L15.1714 142.487C14.7752 140.048 14.5356 137.596 14.2942 135.126C14.1734 133.89 14.0521 132.649 13.9106 131.403L13.9104 131.402C13.8313 130.723 13.7291 130.043 13.6281 129.371C13.5845 129.081 13.5412 128.792 13.5 128.506V119.665C13.5406 119.38 13.5878 119.087 13.6358 118.79C13.7487 118.088 13.8662 117.359 13.9138 116.641C14.1933 112.598 14.6901 108.573 15.402 104.584L15.4022 104.583C15.4345 104.399 15.4797 104.231 15.5347 104.032L19.6485 104.811C17.1263 118.958 17.3291 133.016 20.3592 147.135L20.4642 147.624L20.9533 147.519ZM13.4149 116.607C13.6957 112.546 14.1947 108.503 14.9097 104.496C14.9486 104.276 15.0083 104.059 15.0736 103.822C15.1058 103.705 15.1393 103.584 15.1723 103.454L13.4149 116.607ZM30.8961 174.354L30.4618 174.592L30.6964 175.029C35.0475 183.12 40.4293 190.607 46.7059 197.3L47.0503 197.667L47.4151 197.321L49.2839 195.544L49.6371 195.208L49.3106 194.846C46.2777 191.487 43.4451 188.102 40.8605 184.513L40.8603 184.513C38.2894 180.949 36.0147 177.184 33.8155 173.312L33.572 172.884L33.14 173.121L30.8961 174.354Z" stroke="white" stroke-opacity="0.53"/>
<path d="M122.212 13C122.23 14.2346 122.246 15.4703 122.268 16.7085C122.293 16.8431 122.33 16.9752 122.377 17.1032C128.611 17.0889 134.88 17.4334 141.094 18.4395C147.309 19.4455 153.428 20.9145 159.474 23.1133C159.048 24.4292 158.657 25.6255 158.214 26.9809C152.416 24.9926 146.553 23.4794 140.567 22.5391C134.6 21.6024 128.6 21.143 122.441 21.3428V26.6375L108.656 27.9044C107.885 23.581 107.272 19.1106 106.538 14.5348C107.071 14.4295 107.544 14.2956 108.025 14.2477C111.27 13.8888 114.517 13.5599 117.762 13.2093C118.095 13.1573 118.426 13.0874 118.752 13H122.212Z" fill="#F574D1"/>
<path d="M158.849 23.4195C158.53 24.4035 158.225 25.3373 157.896 26.3444C152.23 24.4282 146.497 22.9645 140.645 22.0451L140.645 22.0451C134.651 21.1043 128.619 20.6421 122.425 20.8431L121.941 20.8588V21.3428V26.1814L109.068 27.3644C108.615 24.7785 108.215 22.1462 107.807 19.4645C107.579 17.9669 107.35 16.454 107.107 14.9251C107.133 14.9191 107.159 14.9133 107.185 14.9075C107.505 14.836 107.779 14.7747 108.074 14.7453L108.074 14.7453L108.08 14.7447C109.961 14.5367 111.839 14.3391 113.719 14.1413C115.083 13.9978 116.448 13.8542 117.815 13.7065L117.827 13.7052L117.839 13.7034C118.168 13.652 118.494 13.5841 118.817 13.5H121.719C121.72 13.5453 121.721 13.5905 121.721 13.6358C121.735 14.661 121.75 15.6884 121.768 16.7173L121.769 16.7594L121.776 16.8008C121.807 16.9633 121.851 17.1228 121.909 17.2775L122.03 17.604L122.378 17.6032C128.594 17.5889 134.834 17.9325 141.014 18.933C147.048 19.9099 152.986 21.3238 158.849 23.4195Z" stroke="white" stroke-opacity="0.53"/>
<path d="M27.0267 133.334L21.9113 133.777C20.9722 124.161 21.4807 114.727 23.2419 105.21L25.8495 105.544C26.7732 100.721 28.0578 95.9736 29.6926 91.3404L19.6816 87.8608C30.0121 59.9644 48.3701 39.2304 74.9194 25.335C76.9681 29.2585 78.8919 33.1003 80.841 36.8944L68.9921 43.9011L65.3001 38.666L59.4186 43.0131L56.1434 39.0066C52.1304 42.1841 48.3601 45.6519 44.8636 49.3816C46.7646 51.1543 48.6152 52.8793 50.5344 54.6668L56.6954 48.7196C57.6058 49.7212 58.436 50.6319 59.304 51.5859C35.6222 73.811 24.8532 100.992 27.0267 133.334Z" fill="#F574D1"/>
<path d="M65.0029 38.2639L59.5043 42.328L56.5305 38.6902L56.219 38.3091L55.833 38.6146C51.8007 41.8074 48.0122 45.2919 44.4989 49.0397L44.156 49.4054L44.5226 49.7473C46.4236 51.52 48.2743 53.2451 50.1937 55.0327L50.5406 55.3558L50.8817 55.0265L56.672 49.4371C57.1198 49.9295 57.5514 50.4034 57.9813 50.8756C58.1885 51.1031 58.3953 51.3303 58.6035 51.5589C35.1817 73.7112 24.4637 100.764 26.4959 132.878L22.3621 133.236C21.507 123.997 21.9934 114.921 23.6485 105.766L25.7859 106.039L26.2521 106.099L26.3405 105.638C27.2596 100.84 28.5376 96.1164 30.1641 91.5067L30.3313 91.033L29.8567 90.8681L20.3286 87.5564C30.5896 60.1737 48.6572 39.7681 74.708 26.011C75.909 28.3179 77.0673 30.5943 78.2163 32.8522C78.8722 34.1413 79.5251 35.4244 80.1811 36.7037L69.1347 43.2359L65.7087 38.3778L65.414 37.96L65.0029 38.2639Z" stroke="white" stroke-opacity="0.53"/>
<path d="M97.748 16.5977C98.8244 20.9476 99.8526 25.0984 100.886 29.2723L87.7663 33.5578L82.8975 21.471C87.7549 19.437 92.6375 17.9092 97.748 16.5977Z" fill="#9C7CA7"/>
<path d="M83.5461 21.743C88.0709 19.8783 92.6269 18.4456 97.384 17.2081C97.8955 19.2751 98.3967 21.2994 98.8931 23.3043C99.3609 25.194 99.8245 27.0664 100.289 28.9413L88.0554 32.9374L83.5461 21.743Z" stroke="white" stroke-opacity="0.53"/>
<path d="M97.5029 227.314L102.94 228.497C102.609 230.01 102.296 231.423 101.963 232.968L96.2588 231.756L97.5029 227.314Z" fill="#9C7CA7"/>
<path d="M96.884 231.378L97.8573 227.903L102.345 228.879C102.274 229.201 102.204 229.52 102.134 229.838C101.95 230.677 101.767 231.509 101.58 232.375L96.884 231.378Z" stroke="white" stroke-opacity="0.53"/>
<path d="M110.761 221.662L115.274 222.328C115.146 223.994 115.021 225.59 114.888 227.315C113.3 227.272 111.779 226.97 110.135 226.687C110.345 225.003 110.545 223.386 110.761 221.662Z" fill="#9C7CA7"/>
<path d="M110.804 225.358C110.933 224.322 111.061 223.295 111.194 222.231L114.74 222.755C114.686 223.447 114.633 224.128 114.58 224.816C114.53 225.466 114.479 226.122 114.427 226.795C113.252 226.725 112.101 226.523 110.859 226.306C110.803 226.296 110.746 226.286 110.69 226.276C110.728 225.969 110.766 225.663 110.804 225.358Z" stroke="white" stroke-opacity="0.53"/>
<path d="M206.757 59.534L209.742 57.1992L212.41 60.5897C211.458 61.4472 210.41 62.078 209.37 62.8526L206.757 59.534Z" fill="#9C7CA7"/>
<path d="M209.465 62.1646L207.46 59.6188L209.657 57.9002L211.722 60.5235C211.223 60.9363 210.709 61.2939 210.169 61.6694C209.939 61.8293 209.705 61.9925 209.465 62.1646Z" stroke="white" stroke-opacity="0.53"/>
<path d="M214.615 63.8799L217.036 68.2336L213.723 70.5612L211.383 66.3587C212.469 65.5272 213.503 64.732 214.615 63.8799Z" fill="#9C7CA7"/>
<path d="M213.525 65.346C213.834 65.1091 214.144 64.8709 214.459 64.6291L216.38 68.0833L213.89 69.8329L212.03 66.4929C212.532 66.1081 213.026 65.7289 213.525 65.346Z" stroke="white" stroke-opacity="0.53"/>
<path d="M201.103 52.5537L203.837 50.0039L206.756 53.2179C205.798 54.04 204.902 54.8124 203.92 55.6573L201.103 52.5537Z" fill="#9C7CA7"/>
<path d="M203.963 54.9607L201.804 52.5829L203.808 50.7151L206.04 53.1735C205.425 53.7021 204.827 54.2167 204.207 54.7509C204.126 54.8205 204.045 54.8904 203.963 54.9607Z" stroke="white" stroke-opacity="0.53"/>
<path d="M225.774 169.603L223.273 175.406L212.411 169.216L214.624 164.1L225.774 169.603Z" fill="#9C7CA7"/>
<path d="M214.874 164.781L225.127 169.842L223.035 174.695L213.048 169.003L214.874 164.781Z" stroke="white" stroke-opacity="0.53"/>
<path d="M216.008 159.238L217.826 153.821L230.398 157.949L228.357 164.1L216.008 159.238Z" fill="#9C7CA7"/>
<path d="M228.049 163.441L216.633 158.947L218.142 154.451L229.766 158.267L228.049 163.441Z" stroke="white" stroke-opacity="0.53"/>
<path d="M206.757 178.793C207.7 177.278 208.571 175.886 209.512 174.379L220.119 180.68L217.014 185.686L206.757 178.793Z" fill="#9C7CA7"/>
<path d="M216.863 184.981L207.437 178.648C208.105 177.575 208.743 176.554 209.403 175.497C209.494 175.352 209.585 175.206 209.677 175.059L219.426 180.85L216.863 184.981Z" stroke="white" stroke-opacity="0.53"/>
</g>
<defs>
<filter id="filter0_f_1103_646" x="0" y="0" width="284" height="294.279" filterUnits="userSpaceOnUse" color-interpolation-filters="sRGB">
<feFlood flood-opacity="0" result="BackgroundImageFix"/>
<feBlend mode="normal" in="SourceGraphic" in2="BackgroundImageFix" result="shape"/>
<feGaussianBlur stdDeviation="6.5" result="effect1_foregroundBlur_1103_646"/>
</filter>
<filter id="filter1_df_1103_646" x="3" y="3" width="278" height="288.279" filterUnits="userSpaceOnUse" color-interpolation-filters="sRGB">
<feFlood flood-opacity="0" result="BackgroundImageFix"/>
<feColorMatrix in="SourceAlpha" type="matrix" values="0 0 0 0 0 0 0 0 0 0 0 0 0 0 0 0 0 0 127 0" result="hardAlpha"/>
<feOffset dy="4"/>
<feGaussianBlur stdDeviation="2"/>
<feComposite in2="hardAlpha" operator="out"/>
<feColorMatrix type="matrix" values="0 0 0 0 0 0 0 0 0 0 0 0 0 0 0 0 0 0 0.25 0"/>
<feBlend mode="normal" in2="BackgroundImageFix" result="effect1_dropShadow_1103_646"/>
<feBlend mode="normal" in="SourceGraphic" in2="effect1_dropShadow_1103_646" result="shape"/>
<feGaussianBlur stdDeviation="5" result="effect2_foregroundBlur_1103_646"/>
</filter>
</defs>
</svg>
