<svg width="51" height="50" viewBox="0 0 51 50" fill="none" xmlns="http://www.w3.org/2000/svg">
<path d="M36.5704 11.3217C36.074 11.3217 35.5888 11.4689 35.1761 11.7447C34.7635 12.0204 34.4418 12.4124 34.2519 12.8709C34.0619 13.3295 34.0122 13.8341 34.1091 14.3209C34.2059 14.8077 34.4449 15.2548 34.7959 15.6058C35.1468 15.9567 35.594 16.1957 36.0808 16.2926C36.5676 16.3894 37.0722 16.3397 37.5307 16.1498C37.9893 15.9598 38.3812 15.6382 38.657 15.2255C38.9327 14.8128 39.0799 14.3276 39.0799 13.8313C39.0799 13.1657 38.8155 12.5274 38.3449 12.0568C37.8742 11.5861 37.2359 11.3217 36.5704 11.3217ZM46.1902 16.3826C46.1495 14.6475 45.8246 12.9308 45.2282 11.3008C44.6965 9.90623 43.8689 8.6434 42.8024 7.59928C41.7668 6.52734 40.501 5.70495 39.1008 5.19431C37.4752 4.57981 35.7565 4.2474 34.019 4.21141C31.8023 4.08594 31.0912 4.08594 25.403 4.08594C19.7147 4.08594 19.0037 4.08594 16.7869 4.21141C15.0494 4.2474 13.3308 4.57981 11.7051 5.19431C10.3075 5.71012 9.0428 6.53181 8.00357 7.59928C6.93164 8.63483 6.10925 9.9006 5.59861 11.3008C4.98411 12.9265 4.6517 14.6451 4.61571 16.3826C4.49023 18.5994 4.49023 19.3104 4.49023 24.9987C4.49023 30.6869 4.49023 31.398 4.61571 33.6147C4.6517 35.3522 4.98411 37.0709 5.59861 38.6965C6.10925 40.0967 6.93164 41.3625 8.00357 42.3981C9.0428 43.4655 10.3075 44.2872 11.7051 44.803C13.3308 45.4175 15.0494 45.7499 16.7869 45.7859C19.0037 45.9114 19.7147 45.9114 25.403 45.9114C31.0912 45.9114 31.8023 45.9114 34.019 45.7859C35.7565 45.7499 37.4752 45.4175 39.1008 44.803C40.501 44.2924 41.7668 43.47 42.8024 42.3981C43.8736 41.3578 44.7019 40.0939 45.2282 38.6965C45.8246 37.0666 46.1495 35.3498 46.1902 33.6147C46.1902 31.398 46.3157 30.6869 46.3157 24.9987C46.3157 19.3104 46.3157 18.5994 46.1902 16.3826ZM42.4259 33.3638C42.4107 34.6912 42.1703 36.0065 41.7149 37.2535C41.381 38.1636 40.8447 38.986 40.1464 39.6585C39.4681 40.3497 38.6475 40.8849 37.7415 41.2269C36.4944 41.6823 35.1792 41.9228 33.8517 41.938C31.7604 42.0425 30.9867 42.0635 25.4866 42.0635C19.9866 42.0635 19.2128 42.0635 17.1215 41.938C15.7431 41.9638 14.3707 41.7515 13.0645 41.3106C12.1982 40.9511 11.4152 40.4172 10.7641 39.7421C10.0699 39.0703 9.54033 38.2473 9.21651 37.3372C8.70594 36.0723 8.42275 34.7271 8.38 33.3638C8.38 31.2725 8.25453 30.4987 8.25453 24.9987C8.25453 19.4986 8.25453 18.7248 8.38 16.6336C8.38938 15.2765 8.63712 13.9315 9.11195 12.6602C9.48011 11.7775 10.0452 10.9906 10.7641 10.3598C11.3994 9.64071 12.1846 9.06964 13.0645 8.68674C14.3392 8.22675 15.6827 7.98633 17.0379 7.9757C19.1291 7.9757 19.9029 7.85023 25.403 7.85023C30.903 7.85023 31.6768 7.85023 33.7681 7.9757C35.0955 7.99093 36.4108 8.23136 37.6578 8.68674C38.6082 9.03944 39.4611 9.61285 40.1464 10.3598C40.8317 11.0021 41.3672 11.7875 41.7149 12.6602C42.1797 13.9336 42.4203 15.278 42.4259 16.6336C42.5305 18.7248 42.5514 19.4986 42.5514 24.9987C42.5514 30.4987 42.5305 31.2725 42.4259 33.3638ZM25.403 14.2704C23.282 14.2746 21.2099 14.9073 19.4484 16.0886C17.6869 17.27 16.3151 18.9469 15.5063 20.9076C14.6975 22.8683 14.488 25.0247 14.9043 27.1044C15.3207 29.1841 16.3441 31.0938 17.8453 32.592C19.3465 34.0903 21.2581 35.11 23.3386 35.5223C25.4191 35.9345 27.5751 35.7208 29.5342 34.9082C31.4933 34.0956 33.1676 32.7206 34.3455 30.9568C35.5234 29.193 36.1521 27.1196 36.1521 24.9987C36.1549 23.5873 35.8786 22.1893 35.3391 20.885C34.7996 19.5808 34.0076 18.3961 33.0086 17.3991C32.0097 16.4021 30.8234 15.6124 29.5182 15.0754C28.2129 14.5385 26.8143 14.2649 25.403 14.2704ZM25.403 31.9626C24.0256 31.9626 22.6792 31.5542 21.534 30.789C20.3888 30.0238 19.4962 28.9361 18.9691 27.6637C18.442 26.3912 18.3041 24.9909 18.5728 23.6401C18.8415 22.2892 19.5048 21.0483 20.4787 20.0744C21.4526 19.1005 22.6935 18.4372 24.0444 18.1685C25.3952 17.8998 26.7955 18.0377 28.0679 18.5648C29.3404 19.0919 30.4281 19.9845 31.1933 21.1297C31.9585 22.2749 32.3669 23.6213 32.3669 24.9987C32.3669 25.9132 32.1868 26.8187 31.8368 27.6637C31.4868 28.5086 30.9739 29.2763 30.3272 29.9229C29.6805 30.5696 28.9129 31.0825 28.0679 31.4325C27.223 31.7825 26.3175 31.9626 25.403 31.9626Z" fill="#FEFEFE"/>
</svg>
