<svg width="170" height="70" viewBox="0 0 170 70" fill="none" xmlns="http://www.w3.org/2000/svg">
<g clip-path="url(#clip0_1095_759)">
<path d="M27.7736 58.7674C39.8178 57.1892 49.122 46.8879 49.122 34.4188C49.122 20.8485 38.127 9.85352 24.5653 9.85352C10.995 9.85352 0 20.8485 0 34.4188C0 46.8879 9.30412 57.1979 21.3483 58.7674L23.0045 51.8825C18.4088 51.475 14.16 49.2812 11.1511 45.7086H4.99457L8.07282 40.3759C7.37913 38.4683 7.03229 36.4392 7.03229 34.4102C7.03229 25.9211 13.1281 18.6287 21.4871 17.1459L24.574 11.8045L27.6609 17.1459C36.0199 18.6287 42.1157 25.9211 42.1157 34.4102C42.1157 36.4392 41.7602 38.4683 41.0751 40.3759L44.1534 45.7086H37.9969C34.988 49.2725 30.7392 51.475 26.1435 51.8825L27.7736 58.7674Z" fill="#FEFEFE"/>
<path fill-rule="evenodd" clip-rule="evenodd" d="M24.6609 20.4055L26.4905 22.8421L26.3951 25.9637L25.3459 27.2124L24.6609 20.4055ZM24.4614 20.4055L22.6318 22.8421L22.7272 25.9637L23.7764 27.2124L24.4614 20.4055ZM24.5655 16.7637L40.0174 43.5228L28.3027 39.7162L27.2449 35.8055L27.0107 39.2999L24.5741 43.5228L22.1376 39.2999L21.9034 35.8055L20.8456 39.7162L9.13086 43.5228L24.5655 16.7637Z" fill="#CF0202"/>
<path d="M155.976 41.2947H160.303V35.3636H165.852V41.2947H170.179V25.6867H165.852V31.531H160.303V25.6867H155.976V41.2947ZM143.472 41.2947H147.799V29.4759H152.482V25.6867H138.79V29.4759H143.472V41.2947ZM126.555 41.2947H138.443V37.5054H130.882V25.678H126.555V41.2947ZM112.915 35.1382L114.675 30.6986L116.418 35.1382H112.915ZM105.987 41.2947H110.539L111.658 38.5026H117.676L118.812 41.2947H123.451L116.809 25.5739H112.638L105.987 41.2947ZM90.7605 41.2947H103.429V37.6181H95.044V35.1382H102.536V31.7304H95.044V29.3632H103.316V25.6867H90.7605V41.2947ZM78.2567 41.2947H82.5836V29.4759H87.266V25.6867H73.5743V29.4759H78.2567V41.2947ZM64.8945 41.5548C68.6838 41.5548 71.2071 39.6559 71.2071 36.4735C71.2071 33.508 68.9699 32.3548 65.3887 31.5657C63.2296 31.0888 62.692 30.7593 62.692 30.0482C62.692 29.4499 63.2036 28.999 64.2528 28.999C65.6315 28.999 67.201 29.5366 68.6231 30.5338L70.7822 27.4816C69.0913 26.1202 67.0102 25.4092 64.3569 25.4092C60.611 25.4092 58.3131 27.5076 58.3131 30.4038C58.3131 33.6641 60.8798 34.5919 64.2008 35.355C66.3166 35.8406 66.8282 36.2047 66.8282 36.8464C66.8282 37.5574 66.2038 37.965 65.0419 37.965C63.2383 37.965 61.5214 37.3146 59.978 36.092L57.5674 38.9708C59.4924 40.6877 62.1284 41.5548 64.8945 41.5548Z" fill="#FEFEFE"/>
<path d="M143.941 51.7258V49.454L141.643 45.9422H143.013L144.53 48.3441L146.065 45.9422H147.409L145.111 49.428V51.7258H143.941ZM131.359 51.7258V45.9422H132.547L134.203 48.5175L135.859 45.9422H137.047V51.7258H135.885V47.9105L134.255 50.3471H134.125L132.512 47.9279V51.7258H131.359ZM121.621 51.7258V45.9422H126.347V47.0001H122.783V48.2834H125.992V49.3413H122.783V50.6679H126.39V51.7258H121.621ZM112.534 47.0174V50.6506H113.548C114.641 50.6506 115.404 49.9396 115.404 48.8297C115.404 47.7371 114.632 47.0174 113.548 47.0174H112.534ZM113.557 51.7258H111.381V45.9422H113.557C115.248 45.9422 116.627 47.0868 116.627 48.8297C116.618 50.5812 115.239 51.7258 113.557 51.7258ZM103.585 47.3989L102.762 49.3326H104.426L103.585 47.3989ZM100.542 51.7258L103.082 45.9075H104.106C104.955 47.8412 105.805 49.7835 106.646 51.7258H105.415L104.843 50.3731H102.319L101.747 51.7258H100.542ZM93.8736 51.8212C92.1914 51.8212 90.9341 50.5032 90.9341 48.8383C90.9341 47.1475 92.2175 45.8555 93.9083 45.8555C94.8188 45.8555 95.5038 46.1243 96.1628 46.7486L96.2235 46.8093L95.4778 47.6677L95.4084 47.607C94.9749 47.1995 94.5066 46.9307 93.8997 46.9307C92.8331 46.9307 92.1394 47.8151 92.1394 48.8383C92.1394 49.8529 92.8418 50.746 93.8997 50.746C94.5587 50.746 94.9836 50.4772 95.4518 50.0436L95.5125 49.9829L96.2669 50.746L96.2062 50.8067C95.5385 51.5004 94.8535 51.8212 93.8736 51.8212ZM83.3902 47.3989L82.5665 49.3326H84.2313L83.3902 47.3989ZM80.3467 51.7258L82.8873 45.9075H83.9105C84.7603 47.8412 85.6101 49.7835 86.4512 51.7258H85.2199L84.6476 50.3731H82.1156L81.5433 51.7258H80.3467Z" fill="#FEFEFE"/>
<path d="M164.439 48.3359H151.779V49.3331H164.439V48.3359Z" fill="#FEFEFE"/>
<path d="M75.9763 48.3359H63.3164V49.3331H75.9763V48.3359Z" fill="#FEFEFE"/>
</g>
<defs>
<clipPath id="clip0_1095_759">
<rect width="169.954" height="69.3691" fill="white" transform="translate(0 0.31543)"/>
</clipPath>
</defs>
</svg>
