<svg width="86" height="24" viewBox="0 0 86 24" fill="none" xmlns="http://www.w3.org/2000/svg">
<path d="M13.2006 23.5843C18.9252 22.8326 23.346 17.9154 23.346 11.9614C23.346 5.4875 18.1191 0.238281 11.6729 0.238281C5.22681 0.238281 0 5.48733 0 11.9614C0 17.9154 4.42079 22.8327 10.1454 23.5843L10.9308 20.2978C8.74622 20.1033 6.72716 19.0545 5.29861 17.3528H2.37154L3.83441 14.8081C3.50623 13.8959 3.33883 12.9312 3.33883 11.9614C3.33883 7.91076 6.23489 4.42904 10.2076 3.72149L11.673 1.17233L13.1386 3.72149C17.1112 4.42921 20.007 7.91092 20.007 11.9614C20.007 12.9307 19.8398 13.8962 19.5116 14.8081L20.9744 17.3529H18.0472C16.6187 19.0545 14.5995 20.1035 12.4146 20.2978L13.2006 23.5843V23.5843Z" fill="white"/>
<path fill-rule="evenodd" clip-rule="evenodd" d="M11.6749 3.51758L19.2521 16.2145L13.5074 14.4101L12.9875 12.5528L12.8709 14.2102L11.6748 16.2145L10.4787 14.2102L10.3622 12.5528L9.84225 14.4101L4.09766 16.2145L11.6749 3.51758V3.51758ZM11.6273 5.24885L10.7298 6.40422L10.7755 7.8845L11.2895 8.47654L11.6273 5.24885V5.24885ZM11.7224 5.24885L12.6198 6.40422L12.5741 7.8845L12.0601 8.47654L11.7224 5.24885V5.24885Z" fill="#E31503"/>
<path d="M34.5728 14C36.4247 14 37.6554 13.0609 37.6554 11.4806C37.6554 10.0111 36.5633 9.44075 34.8126 9.04976C33.7561 8.81403 33.4944 8.65194 33.4944 8.2983C33.4944 7.99989 33.745 7.77911 34.2571 7.77911C34.9323 7.77911 35.695 8.04432 36.392 8.54129L37.4485 7.02765C36.6208 6.35373 35.6077 6 34.3114 6C32.4813 6 31.3594 7.03863 31.3594 8.47499C31.3594 10.0883 32.6138 10.5519 34.2352 10.928C35.2688 11.1676 35.5204 11.3481 35.5204 11.6686C35.5204 12.022 35.2155 12.2209 34.6492 12.2209C33.7668 12.2209 32.928 11.9006 32.1764 11.2926L31 12.7181C31.9369 13.569 33.2221 14 34.5728 14V14ZM41.1034 13.8674H43.2165V8.01113H45.504V6.13261H38.8159V8.01113H41.1034V13.8674V13.8674ZM47.2092 13.8674H53.3963V12.0442H49.3007V10.8176H52.9604V9.12704H49.3007V7.95581H53.3418V6.13261H47.2092V13.8674V13.8674ZM54.6437 13.8674H56.866L57.4107 12.4861H60.3515L60.907 13.8674H63.173L59.927 6.07728H57.8898L54.6437 13.8674V13.8674ZM58.0316 10.8176L58.892 8.61883L59.7417 10.8176H58.0316V10.8176ZM64.6929 13.8674H70.4987V11.9888H66.806V6.13261H64.6929V13.8674V13.8674ZM72.9555 13.8674H75.0686V8.01113H77.3561V6.13261H70.668V8.01113H72.9555V13.8674ZM79.0613 13.8674H81.1744V10.928H83.8867V13.8674H86V6.13261H83.8867V9.02754H81.1744V6.13261H79.0613V13.8674Z" fill="white"/>
<path d="M42 18.9518L43.2512 16.028H43.7569C44.1771 17.0007 44.5924 17.9769 45.0081 18.9518H44.4008L44.1212 18.2723H42.8751L42.5914 18.9518H42V18.9518ZM43.4964 16.7756L43.0894 17.745H43.9068L43.4964 16.7756ZM48.6543 19C47.8254 19 47.2085 18.3389 47.2085 17.5C47.2085 16.6499 47.8399 16 48.674 16C49.1239 16 49.459 16.1343 49.7832 16.4506L49.8131 16.4799L49.4454 16.9124L49.4125 16.8811C49.1979 16.6775 48.9707 16.5432 48.6701 16.5432C48.147 16.5432 47.8038 16.9877 47.8038 17.5C47.8038 18.0085 48.1507 18.4566 48.6701 18.4566C48.9947 18.4566 49.2023 18.3221 49.4322 18.1028L49.4629 18.0735L49.8336 18.4566L49.8044 18.4876C49.4733 18.8393 49.1366 19 48.6543 19V19ZM51.9381 18.9518L53.1894 16.028H53.695C54.1153 17.0007 54.5306 17.9769 54.9462 18.9518H54.339L54.0593 18.2723H52.8131L52.5296 18.9518H51.9381V18.9518ZM53.4346 16.7756L53.0276 17.745H53.845L53.4346 16.7756ZM58.3404 18.9518H57.2688V16.0482H58.3404C59.1739 16.0482 59.8492 16.6221 59.8492 17.5C59.8492 18.3741 59.1701 18.9518 58.3404 18.9518ZM57.8404 16.5875V18.4125H58.3404C58.876 18.4125 59.2539 18.0532 59.2539 17.5C59.2539 16.9503 58.8724 16.5875 58.3404 16.5875H57.8404ZM62.3087 18.9518V16.0482H64.6356V16.5794H62.8803V17.2223H64.4584V17.7535H62.8803V18.4204H64.6553V18.9518H62.3087V18.9518ZM67.1026 18.9518V16.0482H67.6857L68.5012 17.3416L69.3163 16.0482H69.8996V18.9518H69.328V17.0349L68.5243 18.2602H68.4622L67.6663 17.0433V18.9518H67.1026ZM73.2923 18.9518V17.8106L72.1602 16.0482H72.8356L73.584 17.2567L74.3401 16.0482H75L73.8678 17.7986V18.9518H73.2923V18.9518Z" fill="white"/>
<path fill-rule="evenodd" clip-rule="evenodd" d="M83 17V18H77V17H83Z" fill="white"/>
<path fill-rule="evenodd" clip-rule="evenodd" d="M40 17V18H34V17H40Z" fill="white"/>
</svg>
