<svg width="29" height="17" viewBox="0 0 29 17" fill="none" xmlns="http://www.w3.org/2000/svg">
<path fill-rule="evenodd" clip-rule="evenodd" d="M14.5069 14.7773C15.9907 16.1445 17.9833 16.9738 20.1507 16.9738C24.8055 16.9738 28.573 13.1773 28.573 8.50778C28.573 3.82407 24.8055 0.0273438 20.1507 0.0273438C17.9833 0.0273438 15.9907 0.85647 14.5069 2.22385C12.805 3.78024 11.7285 6.0204 11.7285 8.50778C11.7287 10.9952 12.805 13.2355 14.5069 14.7773Z" fill="#E9B040"/>
<path fill-rule="evenodd" clip-rule="evenodd" d="M27.4541 13.2208C27.4541 13.0752 27.5705 12.959 27.7159 12.959C27.8758 12.959 27.992 13.0754 27.992 13.2208C27.992 13.381 27.8756 13.4972 27.7159 13.4972C27.5705 13.4972 27.4541 13.381 27.4541 13.2208ZM27.7159 13.4392C27.8323 13.4392 27.9338 13.3372 27.9338 13.2209C27.9338 13.1047 27.8321 13.0174 27.7159 13.0174C27.6138 13.0174 27.5123 13.1047 27.5123 13.2209C27.5123 13.3372 27.614 13.4392 27.7159 13.4392ZM27.6868 13.3519H27.6286V13.1045H27.7302C27.745 13.1045 27.7741 13.1045 27.7885 13.1192C27.8176 13.1336 27.8176 13.1483 27.8176 13.1774C27.8176 13.2065 27.8032 13.2356 27.7741 13.2356L27.8323 13.3521H27.7594L27.7302 13.25H27.6868V13.3519V13.2064H27.745C27.7594 13.2064 27.7594 13.1916 27.7594 13.1773C27.7594 13.1625 27.7594 13.1625 27.745 13.1482H27.6868V13.3519Z" fill="#E9B040"/>
<path fill-rule="evenodd" clip-rule="evenodd" d="M17.2276 7.60607C17.1985 7.30064 17.1402 7.00977 17.082 6.70418H11.9327C11.9909 6.39876 12.0782 6.10789 12.1653 5.81685H16.8348C16.7335 5.51062 16.617 5.20962 16.4857 4.91496H12.5291C12.6747 4.60684 12.8349 4.30587 13.0092 4.01307H15.9913C15.7994 3.70241 15.5856 3.40587 15.3514 3.12574H13.6493C13.9126 2.80421 14.1994 2.50275 14.5075 2.22385C13.0093 0.871022 11.0309 0.0273438 8.84899 0.0273438C4.20876 0.0273438 0.426758 3.82407 0.426758 8.50778C0.426758 13.1773 4.20876 16.9738 8.84899 16.9738C11.0309 16.9738 13.0092 16.1445 14.5075 14.7773C14.8109 14.5033 15.093 14.2066 15.3514 13.8898H13.6493C13.4165 13.599 13.2129 13.3081 13.0092 12.9879H15.9913C16.1788 12.7003 16.3442 12.3988 16.4859 12.0861H12.5291C12.3982 11.7952 12.2674 11.5043 12.1653 11.1985H16.8348C16.9365 10.9077 17.0094 10.6024 17.0819 10.2967C17.1401 10.0058 17.1983 9.70054 17.2274 9.39477C17.2569 9.09986 17.2715 8.80365 17.2712 8.50727C17.2712 8.20236 17.2567 7.89694 17.2276 7.60607Z" fill="#CC2131"/>
<path fill-rule="evenodd" clip-rule="evenodd" d="M27.4541 10.4715C27.4541 10.3116 27.5705 10.1953 27.7159 10.1953C27.8758 10.1953 27.992 10.3117 27.992 10.4715C27.992 10.617 27.8756 10.7479 27.7159 10.7479C27.5705 10.7479 27.4541 10.6168 27.4541 10.4715ZM27.7159 10.675C27.8323 10.675 27.9338 10.5877 27.9338 10.4715C27.9338 10.3552 27.8321 10.2679 27.7159 10.2679C27.6138 10.2679 27.5123 10.3552 27.5123 10.4715C27.5123 10.5877 27.614 10.675 27.7159 10.675ZM27.6868 10.5877H27.6286V10.355H27.7885C27.8176 10.3698 27.8176 10.3989 27.8176 10.428C27.8176 10.4424 27.8032 10.4715 27.7741 10.4862L27.8323 10.5879H27.7594L27.7302 10.5006H27.6868V10.5877V10.4569H27.7159C27.7302 10.4569 27.745 10.4569 27.745 10.4422C27.7594 10.4422 27.7594 10.4278 27.7594 10.4131C27.7594 10.4131 27.7594 10.3987 27.745 10.3987C27.745 10.384 27.7302 10.3987 27.7159 10.3987H27.6868V10.5877Z" fill="white"/>
<path fill-rule="evenodd" clip-rule="evenodd" d="M11.6418 10.9521C11.3655 11.0247 11.1617 11.0685 10.9582 11.0685C10.5218 11.0685 10.2599 10.792 10.2599 10.2974C10.2599 10.1957 10.2744 10.0938 10.289 9.97742L10.3472 9.64307L10.3908 9.36658L10.7836 6.98106H11.6563L11.5545 7.50477H12.1073L11.9763 8.37755H11.4235L11.1908 9.80297C11.1763 9.8759 11.1763 9.91938 11.1763 9.94849C11.1763 10.1377 11.2636 10.2103 11.4817 10.2103C11.5836 10.2103 11.6707 10.1959 11.758 10.1812L11.6418 10.9521ZM14.4639 10.923C14.1439 11.0103 13.853 11.0538 13.5329 11.0538C12.5437 11.0538 11.9763 10.5301 11.9763 9.49755C11.9763 8.29007 12.6455 7.41728 13.5764 7.41728C14.3182 7.41728 14.7982 7.91188 14.7982 8.68263C14.7982 8.94474 14.7691 9.19195 14.6965 9.54103H12.8782C12.8636 9.59924 12.8636 9.62834 12.8636 9.65745C12.8636 10.0647 13.14 10.2683 13.6637 10.2683C13.9982 10.2683 14.2891 10.1957 14.6092 10.0504L14.4639 10.923ZM13.9256 8.84287V8.66825C13.9256 8.37738 13.7655 8.21731 13.4892 8.21731C13.1982 8.21731 12.9946 8.43542 12.9073 8.8427H13.9256V8.84287ZM4.65953 10.9956H3.75764L4.28135 7.69377L3.10314 10.9956H2.47775L2.40499 7.70833L1.85218 10.9956H0.964844L1.67755 6.70457H3.00128L3.03038 9.3522L3.91772 6.70457H5.37241L4.65953 10.9956ZM6.85621 9.43934C6.7689 9.42461 6.73979 9.42461 6.68158 9.42461C6.15788 9.42461 5.89611 9.62817 5.89611 9.94832C5.89611 10.1666 6.02708 10.3121 6.23064 10.3121C6.66703 10.3121 6.84149 9.94832 6.85621 9.43934ZM7.58347 10.9956H6.798L6.81255 10.6321C6.60882 10.9082 6.33251 11.0538 5.85246 11.0538C5.41607 11.0538 5.03788 10.6612 5.03788 10.0938C5.03788 9.93394 5.06699 9.78859 5.11064 9.64307C5.25599 9.10464 5.79425 8.77028 6.62338 8.75556C6.72524 8.75556 6.88514 8.75556 7.03066 8.77028C7.0596 8.65387 7.0596 8.61004 7.0596 8.53745C7.0596 8.30462 6.87059 8.23186 6.44875 8.23186C6.18698 8.23186 5.89594 8.27551 5.69239 8.34827L5.56142 8.37738L5.50321 8.39176L5.63418 7.60629C6.05602 7.47532 6.36144 7.41728 6.69614 7.41728C7.48161 7.41728 7.90344 7.78091 7.90344 8.44997C7.90344 8.62459 7.918 8.75556 7.85979 9.13374L7.65623 10.3847L7.62713 10.603L7.61257 10.7776L7.59802 10.894L7.58347 10.9956ZM18.8569 7.5337C19.1186 7.5337 19.3515 7.60646 19.6715 7.76636L19.8314 6.83537C19.744 6.79172 19.7149 6.79172 19.5987 6.74806L19.2352 6.64619C19.1188 6.61709 18.9735 6.60254 18.8132 6.60254C18.3621 6.60254 18.1003 6.61709 17.8242 6.77716C17.6787 6.87903 17.4895 7.01 17.2858 7.24266L17.1693 7.21356L16.2384 7.86806L16.2822 7.50442H15.3219L14.7549 10.9954H15.6715L16.0059 9.11919C16.0059 9.11919 16.137 8.85708 16.195 8.77011C16.3697 8.55183 16.515 8.55183 16.704 8.55183H16.777C16.7464 8.77352 16.7318 8.99711 16.7331 9.22089C16.7331 10.3554 17.3731 11.0683 18.3623 11.0683C18.6097 11.0683 18.8281 11.0392 19.1625 10.9519L19.3227 9.96287C19.0318 10.1228 18.7699 10.1955 18.5516 10.1955C18.0135 10.1955 17.6932 9.78824 17.6932 9.1483C17.6929 8.20275 18.1731 7.5337 18.8569 7.5337ZM26.5806 6.70457L26.3772 7.92644C26.1589 7.59191 25.897 7.43184 25.5479 7.43184C25.0677 7.43184 24.6169 7.70815 24.3404 8.23186V8.21748L23.7587 7.86823L23.8169 7.5046H22.8423L22.2895 10.9956H23.1913L23.4969 9.11936C23.4969 9.11936 23.7296 8.85725 23.7878 8.77028C23.9333 8.59566 24.0787 8.56638 24.1951 8.552C24.0934 8.84287 24.0352 9.19195 24.0352 9.58486C24.0352 10.4576 24.486 11.0394 25.155 11.0394C25.4897 11.0394 25.7515 10.923 25.9987 10.6465L25.9552 10.9956H26.8136L27.5118 6.70457H26.5806ZM25.4608 10.1666C25.1552 10.1666 24.9953 9.93394 24.9953 9.48282C24.9953 8.79905 25.2862 8.30462 25.7078 8.30462C26.0278 8.30462 26.188 8.552 26.188 8.98839C26.188 9.68655 25.8972 10.1666 25.4608 10.1666ZM21.2571 9.43934C21.1698 9.42461 21.1407 9.42461 21.0825 9.42461C20.5584 9.42461 20.2967 9.62817 20.2967 9.94832C20.2967 10.1666 20.4278 10.3121 20.6314 10.3121C21.0678 10.3121 21.2424 9.94832 21.2571 9.43934ZM21.9844 10.9956H21.1842L21.2133 10.6321C21.0097 10.9082 20.7331 11.0538 20.2534 11.0538C19.8022 11.0538 19.4097 10.6756 19.4097 10.0938C19.4097 9.26488 20.0349 8.75573 21.0241 8.75573C21.1261 8.75573 21.2859 8.75573 21.417 8.77046C21.4461 8.65404 21.4608 8.61021 21.4608 8.53762C21.4608 8.30479 21.2717 8.23203 20.8353 8.23203C20.5879 8.23203 20.2825 8.27568 20.0789 8.34845L19.9625 8.37755L19.9043 8.39193L20.0351 7.60646C20.4571 7.47549 20.7627 7.41746 21.097 7.41746C21.8825 7.41746 22.2898 7.78109 22.2898 8.45014C22.2898 8.62476 22.3189 8.75573 22.2463 9.13391L22.0571 10.3849L22.028 10.6032L21.9989 10.7778L21.9845 10.8942V10.9956H21.9844ZM9.48894 8.24641C9.66356 8.24641 9.91077 8.26096 10.1727 8.30462L10.3037 7.49004C10.0417 7.46094 9.69267 7.41728 9.48894 7.41728C8.4708 7.41728 8.13628 7.97009 8.13628 8.61004C8.13628 9.03205 8.32528 9.3373 8.81988 9.56996C9.18351 9.74459 9.24172 9.77352 9.24172 9.93377C9.24172 10.1517 9.05272 10.2828 8.70347 10.2828C8.42715 10.2828 8.16521 10.239 7.87434 10.1373L7.77248 10.9372L7.78686 10.9519L7.96148 10.981C8.01969 10.9954 8.09245 11.0101 8.19431 11.0245C8.41242 11.0392 8.6016 11.0536 8.71802 11.0536C9.73632 11.0536 10.1582 10.661 10.1582 9.88994C10.1582 9.41006 9.92533 9.11919 9.47438 8.91563C9.08165 8.74084 9.03799 8.71208 9.03799 8.55183C9.03799 8.39193 9.21262 8.24641 9.48894 8.24641Z" fill="#1B3771"/>
<path fill-rule="evenodd" clip-rule="evenodd" d="M20.0786 6.55893L19.9184 7.48992C19.5984 7.32985 19.3656 7.25726 19.1038 7.25726C18.42 7.25726 17.9401 7.92631 17.9401 8.87185C17.9401 9.52653 18.2601 9.91909 18.7985 9.91909C19.0165 9.91909 19.2784 9.8465 19.5693 9.70115L19.4094 10.6755C19.0747 10.7628 18.8566 10.8066 18.6092 10.8066C17.6202 10.8066 17.0092 10.0937 17.0092 8.94479C17.0092 7.41733 17.8528 6.34082 19.0601 6.34082C19.22 6.34082 19.3654 6.35537 19.4818 6.38448L19.8456 6.47179C19.9622 6.51545 19.9913 6.53 20.0786 6.55893ZM17.1401 7.19905H17.0528C16.7476 7.19905 16.5729 7.34457 16.2964 7.76624L16.3838 7.22798H15.5545L14.9874 10.7191H15.9041C16.2384 8.58081 16.3257 8.21718 16.7621 8.21718H16.8203C16.9076 7.79534 17.0239 7.48975 17.1694 7.21343L17.1401 7.19905ZM11.8745 10.6755C11.6273 10.7628 11.4236 10.7919 11.22 10.7919C10.7545 10.7919 10.4926 10.5301 10.4926 10.0211C10.4926 9.93381 10.5071 9.81757 10.5217 9.71553L10.5799 9.36645L10.6235 9.09031L11.0163 6.70445H11.9182L11.8163 7.22815H12.2818L12.1654 8.08638H11.6999L11.4527 9.54108C11.4381 9.59929 11.4381 9.64311 11.4381 9.6866C11.4381 9.86122 11.5254 9.93398 11.7435 9.93398C11.8454 9.93398 11.9325 9.93398 11.9907 9.90488L11.8745 10.6755ZM8.36882 8.3336C8.36882 8.77016 8.57238 9.07541 9.05242 9.30825C9.43061 9.48287 9.48882 9.54091 9.48882 9.68643C9.48882 9.90471 9.32874 10.0064 8.96511 10.0064C8.68879 10.0064 8.44141 9.96292 8.15054 9.8756L8.01957 10.6755L8.06322 10.6902L8.2233 10.7193C8.28133 10.7337 8.35427 10.7484 8.47051 10.7484C8.67407 10.7775 8.84869 10.7775 8.96511 10.7775C9.92503 10.7775 10.3761 10.4137 10.3761 9.61384C10.3761 9.13362 10.1871 8.85713 9.7362 8.63919C9.34346 8.46457 9.29981 8.42108 9.29981 8.26101C9.29981 8.072 9.45988 7.98469 9.75075 7.98469C9.92538 7.98469 10.1726 7.99924 10.4054 8.02835L10.5362 7.22833C10.3036 7.18467 9.93993 7.15556 9.7362 7.15556C8.7179 7.15539 8.35427 7.69365 8.36882 8.3336ZM27.0463 10.7193H26.1879L26.2318 10.3846C25.9844 10.6464 25.7224 10.7628 25.3877 10.7628C24.7187 10.7628 24.2823 10.1958 24.2823 9.32297C24.2823 8.15914 24.9661 7.16995 25.7659 7.16995C26.1297 7.16995 26.3915 7.33002 26.639 7.64999L26.8426 6.42813H27.7445L27.0463 10.7193ZM25.7079 9.90471C26.1299 9.90471 26.4208 9.41011 26.4208 8.72633C26.4208 8.27539 26.2605 8.04256 25.9405 8.04256C25.5332 8.04256 25.228 8.5226 25.228 9.20638C25.228 9.67205 25.3879 9.90471 25.7079 9.90471ZM14.6673 10.6464C14.3472 10.7484 14.0563 10.7919 13.7218 10.7919C12.7035 10.7919 12.1797 10.2538 12.1797 9.22093C12.1797 8.02818 12.849 7.14084 13.7654 7.14084C14.5218 7.14084 15.0017 7.63544 15.0017 8.40636C15.0017 8.6683 14.9726 8.91568 14.8852 9.27914H13.0818C13.0673 9.32297 13.0673 9.35207 13.0673 9.38118C13.0673 9.78846 13.3437 9.99202 13.8673 9.99202C14.2018 9.99202 14.4927 9.93381 14.8128 9.77374L14.6673 10.6464ZM14.1581 8.56626V8.39181C14.1581 8.10094 13.9981 7.94086 13.7218 7.94086C13.4309 7.94086 13.2272 8.15915 13.1398 8.56626H14.1581ZM4.89224 10.7193H3.99036L4.51406 7.41716L3.33585 10.7193H2.71029L2.63753 7.44626L2.08489 10.7193H1.24121L1.95392 6.42813H3.26309L3.30675 9.09014L4.17936 6.42813H5.60495L4.89224 10.7193ZM7.14696 9.16272C7.05965 9.16272 7.01599 9.14834 6.94323 9.14834C6.43408 9.14834 6.17231 9.33735 6.17231 9.68643C6.17231 9.90471 6.28873 10.0355 6.49229 10.0355C6.87047 10.0355 7.13241 9.68643 7.14696 9.16272ZM7.81601 10.7193H7.05947L7.07403 10.3555C6.84119 10.6464 6.53577 10.7775 6.11393 10.7775C5.61933 10.7775 5.2848 10.3993 5.2848 9.83195C5.2848 8.97389 5.86655 8.47929 6.88485 8.47929C6.98671 8.47929 7.11768 8.49384 7.26303 8.50822C7.29214 8.39198 7.29214 8.34832 7.29214 8.29011C7.29214 8.05745 7.13206 7.97014 6.71022 7.97014C6.44846 7.97014 6.15742 7.99924 5.95386 8.05745L5.82289 8.10111L5.73558 8.11566L5.86655 7.33019C6.31749 7.19922 6.62291 7.15556 6.95761 7.15556C7.74308 7.15556 8.16492 7.50464 8.16492 8.1737C8.16492 8.34832 8.15037 8.47929 8.09216 8.87203L7.88843 10.1086L7.85932 10.3265L7.84477 10.5012L7.83022 10.6323L7.81601 10.7193ZM21.5479 9.16272C21.4458 9.16272 21.4023 9.14834 21.3443 9.14834C20.8206 9.14834 20.5585 9.33735 20.5585 9.68643C20.5585 9.90471 20.6896 10.0355 20.8932 10.0355C21.257 10.0355 21.5331 9.68643 21.5479 9.16272ZM22.2169 10.7193H21.4606L21.4749 10.3555C21.2423 10.6464 20.9368 10.7775 20.515 10.7775C20.0204 10.7775 19.6857 10.3993 19.6857 9.83195C19.6857 8.97389 20.2675 8.47929 21.2858 8.47929C21.3878 8.47929 21.5188 8.49384 21.6496 8.50822C21.6787 8.39198 21.6934 8.34832 21.6934 8.29011C21.6934 8.05745 21.5331 7.97014 21.1116 7.97014C20.8495 7.97014 20.5443 7.99924 20.3406 8.05745L20.2241 8.10111L20.1368 8.11566L20.2676 7.33019C20.7187 7.19922 21.024 7.15556 21.3587 7.15556C22.1442 7.15556 22.5514 7.50464 22.5514 8.1737C22.5514 8.34832 22.5514 8.47929 22.4789 8.87203L22.2897 10.1086L22.2606 10.3265L22.2315 10.5012L22.2171 10.6323V10.7193H22.2169ZM24.6606 7.19905H24.5733C24.2681 7.19905 24.0935 7.34457 23.817 7.76624L23.9043 7.22798H23.075L22.5222 10.7191H23.4241C23.7588 8.58081 23.8461 8.21718 24.2825 8.21718H24.3407C24.428 7.79534 24.5442 7.48975 24.6897 7.21343L24.6606 7.19905Z" fill="white"/>
</svg>
