<svg width="16" height="15" viewBox="0 0 16 15" fill="none" xmlns="http://www.w3.org/2000/svg">
<path fill-rule="evenodd" clip-rule="evenodd" d="M8.81471 1.21342C8.81471 0.660842 8.36676 0.212891 7.81418 0.212891C7.26161 0.212891 6.81365 0.660842 6.81365 1.21342V6.49902L1.52787 6.49902C0.975295 6.49902 0.527344 6.94697 0.527344 7.49955C0.527344 8.05213 0.975294 8.50008 1.52787 8.50008H6.81365V13.7855C6.81365 14.3381 7.26161 14.786 7.81418 14.786C8.36676 14.786 8.81471 14.3381 8.81471 13.7855V8.50008H14.1C14.6525 8.50008 15.1005 8.05213 15.1005 7.49955C15.1005 6.94698 14.6525 6.49902 14.1 6.49902L8.81471 6.49902V1.21342Z" fill="#5FFDF3"/>
</svg>
