<svg width="16" height="15" viewBox="0 0 16 15" fill="none" xmlns="http://www.w3.org/2000/svg">
<path fill-rule="evenodd" clip-rule="evenodd" d="M8.81445 1.00053C8.81445 0.447951 8.3665 0 7.81393 0C7.26135 0 6.8134 0.447951 6.8134 1.00053V6.28613L1.52787 6.28613C0.975295 6.28613 0.527344 6.73408 0.527344 7.28666C0.527344 7.83924 0.975294 8.28719 1.52787 8.28719H6.8134V13.5726C6.8134 14.1252 7.26135 14.5731 7.81393 14.5731C8.3665 14.5731 8.81445 14.1252 8.81445 13.5726V8.28719H14.1C14.6525 8.28719 15.1005 7.83924 15.1005 7.28666C15.1005 6.73409 14.6525 6.28613 14.1 6.28613L8.81445 6.28613V1.00053Z" fill="#87FFA9"/>
</svg>
