<svg width="31" height="31" viewBox="0 0 31 31" fill="none" xmlns="http://www.w3.org/2000/svg">
<path d="M3.33219 9.23774C3.61517 9.36813 4.41694 9.75929 5.29282 8.85279C5.64317 8.39954 5.99352 7.94629 6.41125 7.49925C6.90309 6.98391 6.82898 6.14571 6.26976 5.69246C5.71055 5.23921 4.80098 5.30751 4.30914 5.82285C3.8173 6.33819 3.32545 6.92182 2.90773 7.49925C2.49674 8.07668 2.7056 8.84658 3.33219 9.23774Z" fill="white"/>
<path d="M16.093 2.14754C17.3662 2.14754 18.633 2.31192 19.8419 2.64598C20.6522 2.84217 21.2438 2.42327 21.5138 1.98316C21.7132 1.37867 21.3145 0.768871 20.6457 0.604492C19.1732 0.217405 17.7006 0 16.1637 0C15.4306 0 14.8262 0.440112 14.8262 1.04991C14.8262 1.6597 15.3599 2.14754 16.093 2.14754Z" fill="white"/>
<path d="M28.374 9.93635C28.7212 11.0866 28.9162 12.3019 29.0161 13.5172C29.0161 13.5172 29.0731 15.0249 30.1052 14.8039C31.1278 14.622 30.9947 13.2507 30.9947 13.2507C30.8948 11.7625 30.5999 10.2743 30.2051 8.92254C29.9578 8.24667 29.4156 7.90873 28.9209 8.18168C28.4215 8.51961 28.1742 9.26047 28.374 9.93635Z" fill="white"/>
<path d="M23.4515 5.04071C24.4665 5.76578 25.3593 6.63078 26.1237 7.62298C26.6924 8.36078 27.6525 8.05548 27.8421 7.82015C28.3496 7.35585 28.478 6.49721 28.0316 5.96931C27.1388 4.84354 26.0565 3.78773 24.8518 2.92274C24.277 2.5284 23.5187 2.6556 23.1335 3.25347C22.7482 3.85134 22.8766 4.64001 23.4515 5.04071Z" fill="white"/>
<path d="M8.78481 5.23315C9.90596 4.38657 11.1757 3.71092 12.4387 3.28763C13.2086 3.03528 13.6341 2.09915 13.4247 1.25256C13.2154 0.32457 12.4387 -0.188267 11.7363 0.0640814C10.1896 0.568778 8.71727 1.33396 7.38 2.3515C6.74514 2.85619 6.53577 3.87373 6.96126 4.63891C7.23817 5.15175 7.83252 5.65645 8.78481 5.23315Z" fill="white"/>
<path d="M29.9506 16.2217C29.2218 16.0144 28.557 16.5025 28.4227 17.2649C28.2885 17.8935 27.8793 19.3581 27.8729 19.4985C26.1149 24.2801 21.8956 27.6439 17.0498 28.1855C12.2807 28.7072 7.6395 26.4535 4.94811 22.4009L7.40936 22.9693C8.07422 23.1098 8.80301 22.6884 8.93726 21.9261C9.07151 21.2306 8.66875 20.4682 7.93997 20.3278L2.75535 19.1441C2.42292 19.0772 1.38728 19.1441 1.15714 20.1873L0.0255999 25.6844C-0.10865 26.3799 0.2941 27.1423 1.02289 27.2827C1.83478 27.3697 2.41653 26.8681 2.6211 26.1726L3.01746 24.2868C5.97736 28.4798 11.3218 31.5828 17.3183 30.9073C23.366 30.2252 28.493 25.9653 30.4876 19.9867C30.5515 19.8128 30.852 18.355 30.9543 17.8267C31.1525 17.0576 30.6858 16.3621 29.9506 16.2217Z" fill="white"/>
<path d="M10.8623 16.1732H17.4426C18.2248 16.1732 18.8012 15.6218 18.8698 14.953V6.61085C18.8698 5.94207 18.2248 5.39062 17.4426 5.39062C16.6604 5.39062 16.0154 5.94207 16.0154 6.61085V13.7328H10.8623C10.0801 13.7328 9.43506 14.2842 9.43506 14.953C9.43506 15.6218 10.0732 16.1732 10.8623 16.1732Z" fill="white"/>
</svg>
