<svg width="15" height="22" viewBox="0 0 15 22" fill="none" xmlns="http://www.w3.org/2000/svg">
<path fill-rule="evenodd" clip-rule="evenodd" d="M6.3813 12.2822L8.56717 13.7829V16.555L6.375 20.6443L6.3813 12.2822Z" fill="#62B22F"/>
<path fill-rule="evenodd" clip-rule="evenodd" d="M4.56063 11.1064L6.75288 12.4243L0.251953 16.5156L2.3747 12.5096L4.56063 11.1064Z" fill="#974995"/>
<path fill-rule="evenodd" clip-rule="evenodd" d="M14.7659 7.34323L10.5958 7.32355L8.58325 6.06455L6.40039 2.09082L14.7659 7.34323Z" fill="#EE7024"/>
<path fill-rule="evenodd" clip-rule="evenodd" d="M6.39401 2.09082L8.58603 6.05796L8.59237 11.5242L6.375 10.8303L6.39401 2.09082Z" fill="#FBB61B"/>
<path fill-rule="evenodd" clip-rule="evenodd" d="M0.251953 6.08887L2.39373 10.1272L2.38741 12.5162L0.264589 16.5153L0.251953 6.08887Z" fill="#5A58A3"/>
<path fill-rule="evenodd" clip-rule="evenodd" d="M0.251953 6.08887L14.7404 15.287L10.591 15.3132L2.39302 10.1311L0.251953 6.08887Z" fill="#2188CB"/>
<path fill-rule="evenodd" clip-rule="evenodd" d="M10.5841 7.31738L14.765 7.33695L8.57273 11.2632L8.56641 8.58266L10.5841 7.31738Z" fill="#DA0954"/>
<path fill-rule="evenodd" clip-rule="evenodd" d="M8.57546 16.5675L10.5862 15.3132L14.7405 15.2871L6.375 20.644L8.57546 16.5675Z" fill="#037F37"/>
</svg>
