<svg width="47" height="40" viewBox="0 0 47 40" fill="none" xmlns="http://www.w3.org/2000/svg">
<path fill-rule="evenodd" clip-rule="evenodd" d="M23.1904 12.3008C21.3201 1.98074 33.163 -4.1582 40.1444 3.28777C40.1444 3.28777 43.2604 2.37338 46.0034 0.544608C46.0034 0.544608 45.0058 4.07127 41.64 6.29268C41.64 6.29268 45.3805 5.77094 47.001 4.72567C47.001 4.72567 45.3805 8.25234 42.3877 9.55936C44.0082 33.2025 19.698 47.571 0.000976562 35.8148C0.000976562 35.8148 9.72541 36.3366 13.839 31.3738C13.839 31.3738 7.85513 31.8955 4.86235 24.3204C4.86235 24.3204 7.10567 25.2348 9.35068 24.0587C9.35068 24.0587 2.36921 22.8825 1.74634 14.1313C1.74634 14.1313 3.98966 15.9601 6.48449 15.3074C6.48449 15.3074 -1.24475 10.4737 3.11867 1.72252C3.11867 1.72075 11.3476 12.6934 23.1904 12.3008Z" fill="white"/>
</svg>
