<svg width="26" height="26" viewBox="0 0 26 26" fill="none" xmlns="http://www.w3.org/2000/svg">
<path d="M25.3307 4.5752H0.669334C0.299221 4.5752 0 4.87488 0 5.24453V20.7557C0 21.1253 0.299221 21.425 0.669334 21.425H25.3307C25.7008 21.425 26 21.1253 26 20.7557V5.24453C26 4.87488 25.7008 4.5752 25.3307 4.5752ZM2.01307 9.66702H4.788C5.16225 9.68129 5.46377 9.80051 5.56781 10.2005L6.17132 13.103C5.5784 11.5848 4.1495 10.3216 1.99005 9.79867L2.01307 9.66702ZM5.37079 16.2867L3.76788 10.8105C4.92011 11.548 5.90156 12.7181 6.24727 13.5325L6.43417 14.2087L8.18715 9.73008H10.0837L7.26508 16.2853L5.37079 16.2867ZM11.4777 16.2922H9.68785L10.8069 9.7241H12.5977L11.4777 16.2922ZM14.5923 16.3903C13.7899 16.382 13.017 16.2232 12.5981 16.0395L12.8499 14.5696L13.0806 14.6741C13.6684 14.9195 14.0491 15.0189 14.7659 15.0189C15.2801 15.0189 15.8311 14.8178 15.8362 14.3777C15.8394 14.09 15.6055 13.8846 14.9086 13.5624C14.2291 13.2485 13.3296 12.7218 13.3407 11.7786C13.3503 10.5021 14.5969 9.61131 16.366 9.61131C17.0593 9.61131 17.6149 9.75402 17.9694 9.88706L17.7277 11.3104L17.5661 11.2345C17.2365 11.1019 16.8125 10.9739 16.2265 10.9831C15.5259 10.9831 15.2009 11.275 15.2009 11.548C15.1972 11.8555 15.5802 12.058 16.2063 12.3628C17.2388 12.8314 17.7162 13.3999 17.7097 14.147C17.6959 15.5096 16.4746 16.3903 14.5923 16.3903ZM22.349 16.2945C22.349 16.2945 22.1856 15.5396 22.1313 15.3103C21.8708 15.3103 20.0441 15.3076 19.8388 15.3076C19.7693 15.4848 19.4627 16.2945 19.4627 16.2945H17.5831L20.2407 10.2756C20.4294 9.84793 20.7494 9.73054 21.1784 9.73054H22.5613L24.01 16.2941L22.349 16.2945Z" fill="white"/>
<path d="M21.3046 11.502C21.2134 11.7492 21.0565 12.1464 21.0666 12.1289C21.0666 12.1289 20.5008 13.5868 20.3535 13.9648H21.84C21.7681 13.6361 21.4252 12.0682 21.4252 12.0682L21.3046 11.502Z" fill="white"/>
</svg>
